<?xml version="1.0" encoding="UTF-8" standalone="no"?><!-- Generator: Gravit.io --><svg xmlns="http://www.w3.org/2000/svg" xmlns:xlink="http://www.w3.org/1999/xlink" style="isolation:isolate" viewBox="0 0 300 300" width="300pt" height="300pt"><defs><clipPath id="_clipPath_V8dUDf5QekuBLFbsLJIO6AQnjQtOHGgS"><rect width="300" height="300"/></clipPath></defs><g clip-path="url(#_clipPath_V8dUDf5QekuBLFbsLJIO6AQnjQtOHGgS)"><path d=" M 150 0.012 C 67.186 0.012 0 67.186 0 150 C 0 232.814 67.186 300 150 300 C 232.814 300 300 232.814 300 150 C 300 67.186 232.803 0 150 0 L 150 0.012 Z  M 150 23.425 C 219.773 23.425 276.586 80.215 276.586 150 C 276.586 155.491 276.165 160.794 275.486 166.097 C 273.144 165.512 265.839 163.638 257.926 163.533 C 250.831 163.439 242.332 164.634 237.801 165.359 C 238.996 160.513 240.002 155.35 240.002 150 C 240.002 136.654 234.968 123.66 226.095 112.679 C 229.384 102.353 233.962 78.846 224.994 69.878 C 203.044 69.878 190.693 83.833 188.41 86.713 C 177.963 82.99 166.943 81.132 155.853 81.222 C 144.509 81.222 133.54 82.861 123.66 86.35 C 114.59 75.807 101.345 69.784 87.439 69.878 C 78.658 78.658 83.048 101.299 86.35 111.953 C 77.066 123.109 71.716 136.326 71.716 150 C 71.716 155.034 72.126 160.068 73.18 164.634 C 69.328 164.317 53.746 163.17 47.565 163.17 C 41.395 163.17 31.234 164.493 24.514 166.097 C 23.8 160.761 23.433 155.384 23.414 150 C 23.425 80.227 80.227 23.414 150 23.414 L 150 23.425 Z  M 47.565 166.085 C 53.653 166.085 72.395 167.783 74.268 167.911 C 74.596 169.012 74.959 170.112 75.369 171.201 C 69.199 170.709 55.982 169.831 47.565 170.85 C 40.23 171.787 33.148 174.145 26.715 177.792 C 26.071 174.912 25.345 171.939 24.889 169.012 C 31.328 167.502 41.852 166.085 47.565 166.085 Z  M 257.926 166.448 C 265.605 166.542 273.144 168.192 275.111 168.649 C 274.936 169.972 274.62 171.342 274.385 172.676 C 273.379 172.395 264.236 169.609 254.624 169.375 C 249.918 169.246 242.461 170.019 236.713 170.475 C 236.982 169.738 237.204 169.012 237.439 168.274 C 241.419 167.736 250.878 166.354 257.926 166.448 Z  M 254.261 172.302 C 263.592 172.536 273.461 175.462 274.022 175.591 C 265.371 217.619 235.882 251.826 196.827 267.42 L 196.827 247.307 C 196.827 234.629 189.277 218.169 178.53 209.986 C 208.804 205.643 227.652 192.238 235.612 173.402 C 241.044 172.934 249.368 172.173 254.261 172.302 Z  M 57.083 173.414 C 65.441 173.461 72.945 173.882 76.469 174.151 C 84.605 192.578 103.313 205.701 133.166 209.998 C 129.612 212.78 126.528 216.116 124.034 219.878 C 123.929 220.007 123.753 220.112 123.66 220.241 C 117.806 227.289 106.825 226.832 96.582 226.832 C 86.116 226.832 79.841 218.462 74.268 211.098 C 68.649 203.781 61.332 203.137 57.446 202.681 C 53.559 202.271 52.505 204.238 54.519 205.608 C 65.898 213.615 70.382 223.402 75.006 231.948 C 79.162 239.628 87.72 243.655 97.319 243.655 L 115.242 243.655 C 115.114 244.849 114.879 246.172 114.879 247.319 L 114.879 271.459 C 71.653 258.95 38.346 224.389 27.441 180.731 C 29.735 179.443 37.778 174.971 47.928 173.777 C 50.971 173.499 54.027 173.378 57.083 173.414 L 57.083 173.414 Z  M 155.853 243.655 C 159.096 243.655 161.707 246.266 161.707 249.508 L 161.707 275.849 C 157.82 276.212 153.98 276.586 150 276.586 L 150 249.508 C 150 246.266 152.611 243.655 155.853 243.655 Z  M 132.44 250.609 C 135.683 250.609 138.293 253.208 138.293 256.462 L 138.293 275.849 C 134.372 275.524 130.466 275.036 126.586 274.385 L 126.586 256.462 C 126.586 253.208 129.197 250.609 132.44 250.609 Z  M 179.267 250.609 C 182.51 250.609 185.121 253.208 185.121 256.462 L 185.121 271.459 C 181.281 272.559 177.394 273.66 173.414 274.385 L 173.414 256.462 C 173.414 253.208 176.024 250.609 179.267 250.609 Z " fill="rgb(255,255,255)"/></g></svg>