<?xml version="1.0" encoding="UTF-8" standalone="no"?><!-- Generator: Gravit.io --><svg xmlns="http://www.w3.org/2000/svg" xmlns:xlink="http://www.w3.org/1999/xlink" style="isolation:isolate" viewBox="0 0 300 300" width="300pt" height="300pt"><defs><clipPath id="_clipPath_0VhyD1JirFNhNXEh3wimnEjvbECNvQ6g"><rect width="300" height="300"/></clipPath></defs><g clip-path="url(#_clipPath_0VhyD1JirFNhNXEh3wimnEjvbECNvQ6g)"><path d=" M 40.569 0 C 18.3 0 0 18.3 0 40.569 L 0 259.523 C 0 281.7 18.3 300 40.569 300 L 259.523 300 C 281.7 300 300 281.7 300 259.523 L 300 40.569 C 300 18.3 281.7 0 259.523 0 L 40.569 0 Z  M 40.569 23.077 L 259.523 23.077 C 269.262 23.077 276.923 30.738 276.923 40.569 L 276.923 259.523 C 276.967 264.151 275.147 268.602 271.875 271.875 C 268.602 275.147 264.151 276.967 259.523 276.923 L 40.569 276.923 C 35.927 276.985 31.456 275.175 28.164 271.901 C 24.873 268.627 23.039 264.165 23.077 259.523 L 23.077 40.569 C 23.077 30.738 30.738 23.077 40.569 23.077 Z  M 69.231 46.154 C 56.538 46.154 46.154 56.538 46.154 69.231 C 46.154 81.923 56.538 92.308 69.231 92.308 C 81.923 92.308 92.308 81.923 92.308 69.231 C 92.308 56.538 81.923 46.154 69.231 46.154 Z  M 46.154 115.385 L 46.154 253.846 L 92.308 253.846 L 92.308 115.385 L 46.154 115.385 Z  M 115.385 115.385 L 115.385 253.846 L 161.538 253.846 L 161.538 192 C 161.538 172.8 163.338 155.585 186.415 155.585 C 209.146 155.585 207.692 176.238 207.692 193.269 L 207.692 253.846 L 253.846 253.846 L 253.846 185.538 C 253.846 145.846 245.538 115.385 200.562 115.385 C 178.938 115.385 168.023 124.038 162.069 135.577 L 161.538 135.577 L 161.538 115.385 L 115.385 115.385 Z " fill="rgb(255,255,255)"/></g></svg>